<?xml version="1.0" encoding="utf-8"?>
<!-- Generator: Adobe Illustrator 27.0.0, SVG Export Plug-In . SVG Version: 6.00 Build 0)  -->
<svg version="1.1" id="Capa_1" xmlns="http://www.w3.org/2000/svg" xmlns:xlink="http://www.w3.org/1999/xlink" x="0px" y="0px"
	 viewBox="0 0 890.4 65" style="enable-background:new 0 0 890.4 65;" xml:space="preserve">
<style type="text/css">
	.st0{fill:#FFFFFF;}
	.st1{fill:#EAA820;}
</style>
<g>
	<path id="Trazado_2" class="st0" d="M95.2,19.8c0,9.1,4.1,14.4,12.2,16.4l42.6,5c2.3,0.3,3.9,2.3,3.7,4.6v1.4
		c0,3.4-2.3,5.6-5.9,5.6h-32.4c-3.9,0-6.4-2.2-6.4-5.7v-2.3c0.1-0.3-0.2-0.6-0.5-0.7c-0.1,0-0.1,0-0.2,0H96.4
		c-0.3-0.1-0.6,0.2-0.7,0.5c0,0.1,0,0.1,0,0.2v2.3c0,10.8,7.4,17.4,19.4,17.4H149c11,0,17.9-6.7,17.9-17.6V45
		c0-8.7-4.5-14.3-12.4-15.8l-41.1-4.8c-3.6-0.9-5.3-2.7-5.3-5.2v-1.4c0-3.5,2.3-5.8,6.2-5.8h32.6c3.6,0,5.9,2.4,5.9,6v1
		c-0.1,0.3,0.2,0.6,0.5,0.7c0.1,0,0.1,0,0.2,0H165c0.3,0.1,0.6-0.2,0.7-0.5c0-0.1,0-0.1,0-0.2v-1c0-10.8-7.2-17.6-18.7-17.6h-32.8
		c-11.7,0-19,6.7-19,17.5V19.8z M243,1.2h-63.8c-0.6,0-0.9,0.2-0.9,0.6v61.5c0,0.3,0.3,0.6,0.9,0.6h62.7c0.3,0,0.6-0.3,0.6-0.8V53
		c0-0.5-0.2-0.8-0.6-0.8H191v-12h46.2c0.3,0,0.5-0.5,0.6-0.9l2.3-9.9c0.1-0.3-0.1-0.7-0.4-0.8c-0.1,0-0.1,0-0.2,0H191V12.8h52
		c0.3,0,0.6-0.5,0.6-0.9V2C243.6,1.5,243.4,1.2,243,1.2z M310.7,65h0.5c8.2-0.2,14.8-6.9,14.7-15.1V2c0-0.4-0.3-0.8-0.8-0.8
		c0,0,0,0,0,0H314c-0.4,0-0.8,0.3-0.8,0.8c0,0,0,0,0,0v47.9c0.1,1.2-0.9,2.3-2.1,2.3c0,0,0,0,0,0h-0.1c-1.2-0.2-2.3-0.8-3-1.9
		L282.8,8.8c-2.8-5.6-7.7-8.8-13.7-8.8h-0.2c-8.3,0.1-14.9,6.8-14.9,15.1V63c0,0.4,0.3,0.8,0.8,0.8c0,0,0,0,0,0H266
		c0.4,0,0.8-0.3,0.8-0.8c0,0,0,0,0,0V15.1c0-1.2,0.9-2.3,2.1-2.3c0,0,0,0,0.1,0h0.1c0.7,0,1.4,0.3,1.7,0.9l25.5,42.2
		C299.6,61.6,304.6,65,310.7,65z M402.7,1.2H335c-0.6,0.1-0.9,0.6-0.9,1.2v9.4c0,0.5,0.4,1,0.9,1h27.6v50.4c0,0.3,0.3,0.7,0.9,0.7
		h10.8c0.5,0,1-0.3,1-0.7V12.8h27.4c0.7,0,1.2-0.3,1.2-1V2.3c0-0.6-0.4-1.1-1-1.2C402.8,1.2,402.8,1.2,402.7,1.2L402.7,1.2z
		 M482.5,62.8l-18.7-27.5l10.2-4.8c4.7-2.1,7.9-6.7,8-11.8v-1.9c0-9.2-6.6-15.7-15.9-15.7h-52.6c-0.5,0-0.7,0.3-0.7,0.8v60.8
		c0,0.5,0.4,1,0.9,1h10.8c0.6,0,1-0.5,1-1c0,0,0,0,0,0v-9.5l25.3-12l15.2,21.9c0.2,0.4,0.6,0.6,1,0.6h14.7
		C482.6,63.8,482.8,63.4,482.5,62.8z M425.6,12.8H465c2.7,0,4.3,1.6,4.3,4.1v1.9c0.1,1.5-0.8,2.9-2.2,3.5l-41.4,18.9V12.8z
		 M568.3,62.7L539.4,7.4c-2.1-4.6-6.8-7.6-11.8-7.4c-5.1-0.1-9.7,2.8-11.8,7.4l-28.9,55.2c-0.2,0.4,0,0.9,0.4,1.1
		c0.1,0.1,0.2,0.1,0.3,0.1h12.3c0.4,0,0.8-0.2,0.9-0.6l6.4-12.8H548l6.5,12.8c0.1,0.4,0.5,0.6,0.9,0.6h12.3c0.4,0,0.7-0.3,0.7-0.7
		C568.4,63,568.4,62.8,568.3,62.7z M512.9,38.9l13.2-26.5c0.3-0.4,0.9-0.6,1.4-0.6c0.5,0,1,0.2,1.3,0.6l13.3,26.5H512.9z
		 M577.7,63.3c0,0.3,0.2,0.6,0.5,0.6c0,0,0,0,0.1,0h61.6c0.3,0,0.6-0.2,0.6-0.5c0,0,0,0,0-0.1V52.8c0-0.3-0.2-0.6-0.5-0.6
		c0,0,0,0-0.1,0h-49.4V1.7c0-0.3-0.2-0.6-0.5-0.6c0,0,0,0-0.1,0h-11.6c-0.3,0-0.6,0.2-0.6,0.5c0,0,0,0,0,0.1L577.7,63.3z
		 M726.4,62.7L697.5,7.4c-2.1-4.6-6.8-7.6-11.8-7.4c-5.1-0.1-9.7,2.8-11.8,7.4l-28.9,55.2c-0.2,0.4,0,0.9,0.4,1.1
		c0.1,0.1,0.2,0.1,0.3,0.1h12.3c0.4,0,0.8-0.2,0.9-0.6l6.4-12.8H706l6.5,12.8c0.1,0.4,0.5,0.6,0.9,0.6h12.3c0.4,0,0.7-0.3,0.7-0.7
		C726.5,63,726.5,62.8,726.4,62.7z M671,38.9l13.2-26.5c0.3-0.4,0.9-0.6,1.4-0.6c0.5,0,1,0.2,1.3,0.6l13.3,26.5H671z M791.8,65h0.5
		c8.2-0.2,14.8-6.9,14.7-15.1V2c0-0.4-0.3-0.8-0.8-0.8c0,0,0,0,0,0h-11.1c-0.4,0-0.8,0.3-0.8,0.8c0,0,0,0,0,0v47.9
		c0.1,1.2-0.9,2.3-2.1,2.3c0,0,0,0,0,0h-0.1c-1.2-0.2-2.3-0.8-3-1.9L764,8.8c-2.8-5.6-7.7-8.8-13.7-8.8H750
		c-8.3,0.1-14.9,6.8-14.9,15.1V63c0,0.4,0.3,0.8,0.8,0.8c0,0,0,0,0,0h11.1c0.4,0,0.8-0.3,0.8-0.8c0,0,0,0,0,0V15.1
		c0-1.2,0.9-2.3,2.1-2.3c0,0,0,0,0.1,0h0.1c0.7,0,1.4,0.3,1.7,0.9l25.5,42.2C780.7,61.6,785.7,65,791.8,65z M871.2,1.2h-49.6
		c-0.6,0-0.9,0.2-0.9,0.6v61.5c0,0.3,0.3,0.6,0.9,0.6h49.6c11.7,0,19.2-7,19.2-18V19.1C890.4,8.1,882.9,1.2,871.2,1.2z M877.6,45.8
		c0,3.9-2.4,6.4-6.4,6.4h-37.7V12.8h37.7c3.9,0,6.4,2.4,6.4,6.4L877.6,45.8z"/>
	<path id="Rectángulo_2" class="st1" d="M32.5,0L32.5,0C50.4,0,65,14.6,65,32.5V65l0,0H32.5C14.6,65,0,50.4,0,32.5l0,0
		C0,14.6,14.6,0,32.5,0z"/>
</g>
</svg>
